<?xml version="1.0" encoding="UTF-8"?> <!-- Generator: Adobe Illustrator 22.1.0, SVG Export Plug-In . SVG Version: 6.00 Build 0) --> <svg xmlns="http://www.w3.org/2000/svg" xmlns:xlink="http://www.w3.org/1999/xlink" id="Capa_1" x="0px" y="0px" viewBox="0 0 614.1 265.4" style="enable-background:new 0 0 614.1 265.4;" xml:space="preserve"> <style type="text/css"> .st0{fill:#57B8CC;} .st1{fill:#333333;} </style> <g> <g> <path id="Path" class="st0" d="M454.6,136.6c-1.1-0.1-2.1-0.2-3.2-0.3c-5.6-0.6-10.9-2.1-15.9-4.6c-14.6-7.1-23.6-18.7-27.5-34.4 c-1.4-5.9-1.6-11.8-0.8-17.8c2-13.7,8.5-24.8,19.6-33.2c4.5-3.5,11.7-1.7,13.2,4.8c0.8,3.4-0.5,6.1-3,8.4 c-7.2,6.7-12.3,15.7-13.2,22.5c-2.1,17.1,8.9,33,25.7,36.9c16.8,3.9,33.9-5.8,39.4-22.3c4.4-13.4-0.1-28-11.3-36.7 c-1.9-1.4-3.2-3.2-3.6-5.5c-0.6-3.4,0.9-6.9,3.8-8.7c2.8-1.8,6.6-1.6,9.3,0.4c16.3,12.4,19.7,30.7,20,36.5 c0.9,15.6-4.3,28.9-15.4,39.8c-7.4,7.3-16.4,11.6-26.7,13.3c-1.7,0.3-3.4,0.4-5.1,0.6c-0.2,0-0.4,0.1-0.6,0.1H454.6z"></path> <path id="Path_1_" class="st0" d="M457.9,27.8c0.4,0.1,0.7,0.2,1.1,0.3c3.6,1,6.2,4.3,6.2,8c0,14,0,28,0,42c0,4.4-3.5,7.9-7.9,8.2 c-4.1,0.3-8.1-2.9-8.7-7.1c-0.1-0.6-0.1-1.2-0.1-1.8c0-13.6,0-27.3,0-40.9c0-4.6,2.7-7.9,7.3-8.8c0.1,0,0.1,0,0.1-0.1H457.9z"></path> <path id="Compound_Path" class="st1" d="M63.3,74.7c3.6,0,6.7-3,6.7-6.7c0-3.8-3.1-6.7-6.7-6.7H47.1v13.5H63.3z M87.2,136.6 l-32.7-45h-7.4v45H30.3V44.4h33c6.2,0,12,2.5,16.6,7c4.5,4.5,7,10.4,7,16.6c0,9.2-5.4,17.5-13.5,21.4l34.3,47.2H87.2z"></path> <path id="Path_2_" class="st1" d="M122.5,136.6V44.4h60.7v16.8h-43.4v13.6h37.8V92h-37.8v27.4h42.2v17.1H122.5z"></path> <path id="Compound_Path_1_" class="st1" d="M250.8,119.6c7.6-0.3,13.8-6.6,13.8-14.2c0-7.5-6.2-13.8-13.7-14h-23.2v28.2H250.8z M244.5,74.4c3.6,0,6.5-3,6.5-6.5c0-3.5-2.8-6.3-6.5-6.6h-16.8v13.1H244.5z M210.5,136.6V44.4h34.2c6.2,0,12.3,2.6,16.6,7 c4.4,4.3,7,10.4,7,16.6c0,3.8-0.9,7.2-2.3,10.4c2.5,1.4,4.8,3.1,6.7,5.2c6,5.8,9.2,13.6,9.2,21.9c0,8.3-3.2,16-9.2,22 c-2.8,2.8-6.2,5.2-10,6.7c-3.8,1.7-7.8,2.5-11.8,2.5H210.5z"></path> <path id="Compound_Path_2_" class="st1" d="M313.2,88.5c0,17.1,13.8,30.9,30.8,30.9s30.8-13.8,30.8-30.9 c0-17.2-13.8-31.1-30.8-31.1S313.2,71.3,313.2,88.5z M295.9,88.5c0-26.7,21.6-48.3,48.1-48.3c26.7,0,48.3,21.6,48.3,48.3 c0,26.5-21.6,48-48.3,48C317.5,136.6,295.9,115.1,295.9,88.5z"></path> <path id="Path_3_" class="st1" d="M542,136.6V61.5h-22.7V44.4H582v17.1h-22.7v75.1H542z"></path> <path id="Compound_Path_3_" class="st0" d="M42.4,211h26.1l-13-33.9L42.4,211z M33.7,233.9H30l23.3-60.6h4.3L81,233.9h-3.7 l-7.6-19.7H41.2L33.7,233.9z"></path> <path id="Path_4_" class="st0" d="M128.9,232.5c-3.8-1.6-7.2-3.9-10.1-6.8c-2.9-2.9-5.2-6.3-6.8-10.1c-1.6-3.9-2.5-8-2.5-12.4 c0-4.3,0.9-8.4,2.5-12.4c1.6-3.7,3.9-7.2,6.8-10.1c3-2.9,6.3-5.2,10.1-6.8c3.9-1.6,8.1-2.3,12.4-2.3c4.6,0,9.1,0.8,13.3,2.7 c4,1.9,7.5,4.4,10.5,7.8l-2.6,2.3c-5.4-6-13.1-9.6-21.2-9.6c-15.7,0-28.4,12.8-28.4,28.4c0,15.7,12.7,28.4,28.4,28.4 c8.1,0,15.8-3.6,21.2-9.6l2.6,2.3c-3,3.3-6.5,6-10.5,7.8c-4.2,2-8.7,2.8-13.3,2.8C137,234.9,132.8,234.1,128.9,232.5z"></path> <path id="Compound_Path_4_" class="st0" d="M212,211h26.1l-13-33.9L212,211z M203.3,233.9h-3.7l23.3-60.6h4.3l23.3,60.6h-3.7 l-7.6-19.7h-28.6L203.3,233.9z"></path> <path id="Compound_Path_5_" class="st0" d="M332.5,203.6c0-14.9-12.1-27.1-27.1-27.1h-16.8v54.2h16.8 C320.4,230.7,332.5,218.5,332.5,203.6z M335.8,203.6c0,4.1-0.8,8.1-2.4,11.8c-1.5,3.6-3.7,6.8-6.5,9.6c-2.8,2.7-6,4.9-9.6,6.5 c-3.7,1.6-7.8,2.4-11.8,2.4h-20.2v-60.6h20.2c4.1,0,8.1,0.8,11.8,2.4c3.6,1.5,6.8,3.7,9.6,6.5c2.8,2.8,4.9,6,6.5,9.7 C335,195.5,335.8,199.5,335.8,203.6z"></path> <path id="Path_5_" class="st0" d="M374.7,176.5v18.6h29v3.2h-29v32.4h33v3.2h-36.5v-60.6h36.5v3.2H374.7z"></path> <path id="Path_6_" class="st0" d="M499.7,233.9h-3.4v-54.9l-23.5,32.3l-23.4-32.3v54.9h-3.4v-60.6h3.4l23.4,32.3l23.5-32.3h3.4 V233.9z"></path> <path id="Path_7_" class="st0" d="M578,173.3h4l-21,29.1v31.5h-3.4v-31.5l-20.8-29.1h4l18.6,26.1L578,173.3z"></path> </g> </g> </svg> 